<svg width="24" height="22" viewBox="0 0 24 22" fill="none" xmlns="http://www.w3.org/2000/svg">
<path d="M15.8835 10.438C15.8846 10.698 15.8341 10.9556 15.7349 11.196C15.6357 11.4363 15.4897 11.6545 15.3055 11.838L13.6945 13.452C13.4427 13.7043 13.1273 13.8838 12.7817 13.9714C12.4362 14.059 12.0734 14.0516 11.7318 13.9498C11.3901 13.848 11.0824 13.6557 10.8412 13.3932C10.5999 13.1308 10.4342 12.808 10.3615 12.459C10.3365 12.3203 10.3667 12.1772 10.4456 12.0604C10.5245 11.9436 10.6459 11.8622 10.7839 11.8335C10.9219 11.8048 11.0657 11.8312 11.1846 11.9069C11.3035 11.9826 11.3881 12.1018 11.4205 12.239C11.4553 12.3956 11.5314 12.5401 11.6408 12.6574C11.7502 12.7748 11.889 12.8608 12.0428 12.9064C12.1966 12.9521 12.3598 12.9559 12.5155 12.9173C12.6712 12.8787 12.8138 12.7992 12.9285 12.687L14.5455 11.067C14.6422 10.9872 14.7212 10.888 14.7774 10.7758C14.8335 10.6637 14.8656 10.5411 14.8716 10.4158C14.8776 10.2905 14.8573 10.1654 14.8121 10.0484C14.7669 9.93138 14.6977 9.82514 14.609 9.73645C14.5204 9.64776 14.4141 9.57859 14.2971 9.53338C14.1801 9.48816 14.055 9.46789 13.9297 9.47387C13.8044 9.47985 13.6818 9.51196 13.5696 9.56812C13.4575 9.62428 13.3583 9.70326 13.2785 9.79999L12.7905 10.277C12.7406 10.3285 12.6809 10.3695 12.6149 10.3978C12.5489 10.426 12.478 10.4408 12.4063 10.4413C12.3345 10.4419 12.2634 10.4282 12.197 10.401C12.1306 10.3738 12.0703 10.3336 12.0196 10.2829C11.9689 10.2322 11.9287 10.1718 11.9015 10.1055C11.8743 10.0391 11.8606 9.96795 11.8612 9.89621C11.8617 9.82447 11.8765 9.75355 11.9047 9.68759C11.933 9.62163 11.974 9.56194 12.0255 9.51199L12.5135 9.03499C12.7899 8.75787 13.1424 8.56909 13.5263 8.49258C13.9101 8.41608 14.3081 8.4553 14.6696 8.60527C15.0312 8.75524 15.34 9.00921 15.557 9.33497C15.774 9.66072 15.8894 10.0436 15.8885 10.435L15.8835 10.438ZM10.3235 14.067L9.8455 14.561C9.76597 14.6591 9.66668 14.7394 9.55409 14.7966C9.4415 14.8539 9.31812 14.8867 9.19198 14.8931C9.06584 14.8996 8.93976 14.8793 8.82195 14.8338C8.70413 14.7883 8.59722 14.7185 8.50816 14.6289C8.41909 14.5394 8.34988 14.4321 8.30501 14.314C8.26014 14.196 8.24063 14.0698 8.24773 13.9437C8.25484 13.8176 8.28841 13.6944 8.34626 13.5821C8.40411 13.4698 8.48494 13.371 8.5835 13.292L10.2055 11.667C10.2886 11.5821 10.3878 11.5145 10.4971 11.4682C10.6065 11.4218 10.724 11.3975 10.8428 11.3968C10.9616 11.396 11.0794 11.4188 11.1894 11.4638C11.2993 11.5088 11.3993 11.5752 11.4835 11.659C11.6056 11.7812 11.6891 11.9367 11.7235 12.106C11.7529 12.2459 11.8366 12.3685 11.9561 12.4469C12.0756 12.5253 12.2213 12.5533 12.3614 12.5246C12.5015 12.4959 12.6245 12.413 12.7036 12.2939C12.7827 12.1748 12.8114 12.0292 12.7835 11.889C12.7077 11.5102 12.5215 11.1623 12.2485 10.889C11.8756 10.5199 11.3717 10.3134 10.8471 10.3147C10.3224 10.316 9.81954 10.525 9.4485 10.896L7.8135 12.527C7.62965 12.7108 7.48381 12.9291 7.38431 13.1693C7.28481 13.4095 7.2336 13.667 7.2336 13.927C7.2336 14.187 7.28481 14.4445 7.38431 14.6847C7.48381 14.9249 7.62965 15.1431 7.8135 15.327C7.99735 15.5108 8.21561 15.6567 8.45583 15.7562C8.69604 15.8557 8.9535 15.9069 9.2135 15.9069C9.4735 15.9069 9.73096 15.8557 9.97117 15.7562C10.2114 15.6567 10.4296 15.5108 10.6135 15.327L11.0915 14.833C11.1418 14.7826 11.1817 14.7227 11.2088 14.6569C11.236 14.5911 11.2499 14.5205 11.2499 14.4493C11.2498 14.3781 11.2356 14.3076 11.2083 14.2418C11.181 14.176 11.1409 14.1163 11.0905 14.066C11.0401 14.0157 10.9802 13.9758 10.9144 13.9487C10.8486 13.9215 10.778 13.9075 10.7068 13.9076C10.6356 13.9077 10.5651 13.9219 10.4993 13.9492C10.4335 13.9765 10.3738 14.0166 10.3235 14.067Z" fill="#707070"/>
<path d="M20.4685 21.19H2.6495C1.9471 21.1895 1.27363 20.9102 0.776959 20.4135C0.28029 19.9169 0.00102944 19.2434 0.000499725 18.541L0.000499725 2.649C0.00102944 1.9466 0.28029 1.27313 0.776959 0.776459C1.27363 0.27979 1.9471 0.000529711 2.6495 0H20.4685C21.1709 0.000529711 21.8444 0.27979 22.341 0.776459C22.8377 1.27313 23.117 1.9466 23.1175 2.649V18.541C23.117 19.2434 22.8377 19.9169 22.341 20.4135C21.8444 20.9102 21.1709 21.1895 20.4685 21.19ZM2.6495 1.445C2.33173 1.44658 2.02742 1.57351 1.80271 1.79821C1.57801 2.02292 1.45108 2.32723 1.4495 2.645V18.541C1.45108 18.8588 1.57801 19.1631 1.80271 19.3878C2.02742 19.6125 2.33173 19.7394 2.6495 19.741H20.4685C20.7863 19.7394 21.0906 19.6125 21.3153 19.3878C21.54 19.1631 21.6669 18.8588 21.6685 18.541V2.649C21.6669 2.33123 21.54 2.02692 21.3153 1.80221C21.0906 1.57751 20.7863 1.45058 20.4685 1.449L2.6495 1.445Z" fill="#707070"/>
<path d="M22.3945 4.81597H0.7225C0.62762 4.81597 0.533669 4.79728 0.446011 4.76097C0.358353 4.72467 0.278706 4.67145 0.211615 4.60436C0.144525 4.53727 0.0913061 4.45762 0.054997 4.36996C0.018688 4.2823 0 4.18835 0 4.09347C0 3.99859 0.018688 3.90464 0.054997 3.81698C0.0913061 3.72932 0.144525 3.64968 0.211615 3.58259C0.278706 3.5155 0.358353 3.46228 0.446011 3.42597C0.533669 3.38966 0.62762 3.37097 0.7225 3.37097H22.3945C22.4894 3.37097 22.5833 3.38966 22.671 3.42597C22.7586 3.46228 22.8383 3.5155 22.9054 3.58259C22.9725 3.64968 23.0257 3.72932 23.062 3.81698C23.0983 3.90464 23.117 3.99859 23.117 4.09347C23.117 4.18835 23.0983 4.2823 23.062 4.36996C23.0257 4.45762 22.9725 4.53727 22.9054 4.60436C22.8383 4.67145 22.7586 4.72467 22.671 4.76097C22.5833 4.79728 22.4894 4.81597 22.3945 4.81597Z" fill="#707070"/>
</svg>
