<svg width="22" height="21" viewBox="0 0 22 21" fill="none" xmlns="http://www.w3.org/2000/svg">
<path d="M20.6637 1.69441e-05H13.9377C13.7633 -0.00428091 13.5944 0.0608204 13.468 0.181015C13.3416 0.301209 13.2681 0.466663 13.2637 0.641017V19.885C13.2681 20.0592 13.3415 20.2245 13.4677 20.3447C13.5938 20.4648 13.7625 20.53 13.9367 20.526H20.6637C20.8379 20.53 21.0065 20.4648 21.1327 20.3447C21.2589 20.2245 21.3322 20.0592 21.3367 19.885V0.641017C21.3322 0.46684 21.2589 0.301541 21.1327 0.181375C21.0065 0.0612093 20.8379 -0.00401191 20.6637 1.69441e-05ZM19.9907 19.243H14.6097V1.28302H19.9907V19.243Z" fill="#707070"/>
<path d="M14.0318 19.181H7.9778V7.07402H14.0318C14.1223 7.07751 14.2126 7.06269 14.2972 7.03047C14.3818 6.99824 14.4591 6.94928 14.5244 6.88649C14.5896 6.82369 14.6415 6.74837 14.677 6.66504C14.7125 6.5817 14.7307 6.49208 14.7307 6.40152C14.7307 6.31095 14.7125 6.22133 14.677 6.138C14.6415 6.05467 14.5896 5.97934 14.5244 5.91655C14.4591 5.85375 14.3818 5.80479 14.2972 5.77256C14.2126 5.74034 14.1223 5.72553 14.0318 5.72902H7.3058C7.12731 5.72902 6.95614 5.79992 6.82993 5.92613C6.70371 6.05234 6.63281 6.22353 6.63281 6.40202V19.854C6.63281 20.0325 6.70371 20.2037 6.82993 20.3299C6.95614 20.4561 7.12731 20.527 7.3058 20.527H14.0318C14.1223 20.5305 14.2126 20.5157 14.2972 20.4835C14.3818 20.4512 14.4591 20.4023 14.5244 20.3395C14.5896 20.2767 14.6415 20.2014 14.677 20.118C14.7125 20.0347 14.7307 19.9451 14.7307 19.8545C14.7307 19.764 14.7125 19.6743 14.677 19.591C14.6415 19.5077 14.5896 19.4323 14.5244 19.3695C14.4591 19.3068 14.3818 19.2578 14.2972 19.2256C14.2126 19.1933 14.1223 19.1785 14.0318 19.182V19.181Z" fill="#707070"/>
<path d="M7.4 19.18H1.345V13.799H7.4C7.4905 13.8025 7.58077 13.7877 7.6654 13.7554C7.75004 13.7232 7.8273 13.6743 7.89256 13.6115C7.95782 13.5487 8.00974 13.4734 8.0452 13.39C8.08066 13.3067 8.09894 13.217 8.09894 13.1265C8.09894 13.0359 8.08066 12.9463 8.0452 12.863C8.00974 12.7796 7.95782 12.7043 7.89256 12.6415C7.8273 12.5787 7.75004 12.5298 7.6654 12.4975C7.58077 12.4653 7.4905 12.4505 7.4 12.454H0.673C0.494509 12.454 0.323329 12.5249 0.197117 12.6511C0.0709051 12.7773 0 12.9485 0 13.127L0 19.854C0 20.0325 0.0709051 20.2037 0.197117 20.3299C0.323329 20.4561 0.494509 20.527 0.673 20.527H7.4C7.4905 20.5305 7.58077 20.5157 7.6654 20.4834C7.75004 20.4512 7.8273 20.4023 7.89256 20.3395C7.95782 20.2767 8.00974 20.2014 8.0452 20.118C8.08066 20.0347 8.09894 19.9451 8.09894 19.8545C8.09894 19.7639 8.08066 19.6743 8.0452 19.591C8.00974 19.5076 7.95782 19.4323 7.89256 19.3695C7.8273 19.3067 7.75004 19.2578 7.6654 19.2255C7.58077 19.1933 7.4905 19.1785 7.4 19.182V19.18Z" fill="#707070"/>
</svg>
