<svg width="29" height="25" viewBox="0 0 29 25" fill="none" xmlns="http://www.w3.org/2000/svg">
<path d="M27.271 0H1.544C1.13451 0 0.741785 0.162671 0.452228 0.452227C0.162672 0.741783 1.29545e-06 1.13451 1.29545e-06 1.544V23.154C-0.000261566 23.3569 0.0394812 23.5579 0.116957 23.7455C0.194432 23.933 0.308121 24.1035 0.451521 24.2471C0.594921 24.3907 0.765218 24.5046 0.952676 24.5823C1.14013 24.66 1.34107 24.7 1.544 24.7H27.271C27.6805 24.7 28.0732 24.5373 28.3628 24.2478C28.6523 23.9582 28.815 23.5655 28.815 23.156V1.544C28.815 1.13451 28.6523 0.741783 28.3628 0.452227C28.0732 0.162671 27.6805 0 27.271 0ZM26.756 2.573C26.756 2.67486 26.7258 2.77443 26.6692 2.85912C26.6126 2.94381 26.5322 3.00982 26.4381 3.0488C26.344 3.08778 26.2404 3.09798 26.1405 3.0781C26.0406 3.05823 25.9489 3.00918 25.8768 2.93716C25.8048 2.86514 25.7558 2.77337 25.7359 2.67347C25.716 2.57357 25.7262 2.47002 25.7652 2.37592C25.8042 2.28181 25.8702 2.20138 25.9549 2.14479C26.0396 2.0882 26.1391 2.058 26.241 2.058C26.3776 2.058 26.5086 2.11226 26.6052 2.20884C26.7017 2.30542 26.756 2.43641 26.756 2.573ZM24.698 2.573C24.698 2.67486 24.6678 2.77443 24.6112 2.85912C24.5546 2.94381 24.4742 3.00982 24.3801 3.0488C24.286 3.08778 24.1824 3.09798 24.0825 3.0781C23.9826 3.05823 23.8909 3.00918 23.8188 2.93716C23.7468 2.86514 23.6978 2.77337 23.6779 2.67347C23.658 2.57357 23.6682 2.47002 23.7072 2.37592C23.7462 2.28181 23.8122 2.20138 23.8969 2.14479C23.9816 2.0882 24.0811 2.058 24.183 2.058C24.2508 2.05774 24.318 2.07086 24.3807 2.09663C24.4434 2.12239 24.5004 2.16028 24.5485 2.20813C24.5965 2.25598 24.6346 2.31284 24.6606 2.37545C24.6866 2.43807 24.7 2.5052 24.7 2.573H24.698ZM22.125 2.058C22.2269 2.058 22.3264 2.0882 22.4111 2.14479C22.4958 2.20138 22.5618 2.28181 22.6008 2.37592C22.6398 2.47002 22.65 2.57357 22.6301 2.67347C22.6102 2.77337 22.5612 2.86514 22.4892 2.93716C22.4171 3.00918 22.3254 3.05823 22.2255 3.0781C22.1256 3.09798 22.022 3.08778 21.9279 3.0488C21.8338 3.00982 21.7534 2.94381 21.6968 2.85912C21.6402 2.77443 21.61 2.67486 21.61 2.573C21.61 2.43641 21.6643 2.30542 21.7608 2.20884C21.8574 2.11226 21.9884 2.058 22.125 2.058ZM27.785 23.158C27.785 23.2946 27.7307 23.4256 27.6342 23.5222C27.5376 23.6187 27.4066 23.673 27.27 23.673H1.544C1.40741 23.673 1.27642 23.6187 1.17984 23.5222C1.08326 23.4256 1.029 23.2946 1.029 23.158V5.145H27.785V23.158Z" fill="#707070"/>
<path d="M8.23175 10.806C7.66583 10.8069 7.11105 10.9633 6.62804 11.2582C6.14503 11.5531 5.75237 11.9751 5.49299 12.4781C5.2336 12.9811 5.11747 13.5457 5.15729 14.1102C5.19711 14.6747 5.39134 15.2174 5.71875 15.679L4.26775 17.13C4.21815 17.1776 4.17856 17.2347 4.15128 17.2978C4.12401 17.3609 4.10961 17.4289 4.10891 17.4976C4.10822 17.5664 4.12125 17.6346 4.14725 17.6983C4.17325 17.7619 4.21168 17.8198 4.26031 17.8684C4.30894 17.917 4.36678 17.9555 4.43045 17.9815C4.49412 18.0075 4.56233 18.0205 4.6311 18.0198C4.69986 18.0191 4.7678 18.0047 4.83093 17.9774C4.89406 17.9502 4.95111 17.9106 4.99875 17.861L6.44675 16.406C6.84268 16.6884 7.29976 16.8734 7.78072 16.9457C8.26168 17.018 8.75292 16.9756 9.21441 16.822C9.67589 16.6684 10.0946 16.408 10.4363 16.0619C10.778 15.7158 11.0331 15.2939 11.1808 14.8305C11.3285 14.3671 11.3646 13.8753 11.2862 13.3953C11.2078 12.9153 11.0171 12.4606 10.7296 12.0683C10.4422 11.676 10.0661 11.3572 9.63198 11.1378C9.19789 10.9184 8.71812 10.8047 8.23175 10.806ZM8.23175 15.951C7.82472 15.951 7.42683 15.8303 7.08839 15.6041C6.74995 15.378 6.48617 15.0566 6.33041 14.6805C6.17464 14.3045 6.13389 13.8907 6.2133 13.4915C6.2927 13.0923 6.48871 12.7256 6.77653 12.4378C7.06434 12.1499 7.43104 11.9539 7.83026 11.8745C8.22947 11.7951 8.64326 11.8359 9.01931 11.9916C9.39536 12.1474 9.71678 12.4112 9.94292 12.7496C10.1691 13.0881 10.2898 13.4859 10.2898 13.893C10.2898 14.1632 10.2365 14.4309 10.1331 14.6805C10.0297 14.9302 9.87808 15.1571 9.68698 15.3482C9.49587 15.5393 9.269 15.6909 9.01931 15.7943C8.76963 15.8977 8.50201 15.951 8.23175 15.951Z" fill="#707070"/>
<path d="M24.1829 15.951H12.8639C12.7944 15.9479 12.725 15.959 12.6599 15.9834C12.5948 16.0079 12.5354 16.0453 12.4851 16.0934C12.4349 16.1415 12.3949 16.1992 12.3676 16.2632C12.3403 16.3271 12.3262 16.396 12.3262 16.4655C12.3262 16.535 12.3403 16.6039 12.3676 16.6678C12.3949 16.7318 12.4349 16.7895 12.4851 16.8376C12.5354 16.8857 12.5948 16.9231 12.6599 16.9476C12.725 16.972 12.7944 16.9831 12.8639 16.98H24.1839C24.2533 16.9831 24.3227 16.972 24.3878 16.9476C24.4529 16.9231 24.5124 16.8857 24.5626 16.8376C24.6128 16.7895 24.6528 16.7318 24.6801 16.6678C24.7075 16.6039 24.7215 16.535 24.7215 16.4655C24.7215 16.396 24.7075 16.3271 24.6801 16.2632C24.6528 16.1992 24.6128 16.1415 24.5626 16.0934C24.5124 16.0453 24.4529 16.0079 24.3878 15.9834C24.3227 15.959 24.2523 15.9479 24.1829 15.951Z" fill="#707070"/>
</svg>
