<svg width="18" height="17" viewBox="0 0 18 17" fill="none" xmlns="http://www.w3.org/2000/svg">
<path d="M1.70001 1.70117V5.95117H5.95001V1.70117H1.70001ZM0.850006 0.000976562H6.79999C6.91161 0.000976562 7.02215 0.0232015 7.12527 0.065918C7.2284 0.108634 7.3221 0.17107 7.40103 0.25C7.47996 0.32893 7.54258 0.422752 7.5853 0.525879C7.62801 0.629006 7.64999 0.739451 7.64999 0.851074V6.80078C7.64999 7.02622 7.56044 7.24245 7.40103 7.40186C7.24163 7.56126 7.02542 7.65088 6.79999 7.65088H0.850006C0.624572 7.65088 0.408368 7.56126 0.248962 7.40186C0.0895565 7.24245 0 7.02622 0 6.80078V0.851074C0 0.739451 0.0219808 0.629006 0.0646973 0.525879C0.107414 0.422752 0.170033 0.32893 0.248962 0.25C0.327892 0.17107 0.421592 0.108634 0.524719 0.065918C0.627846 0.0232015 0.738383 0.000976562 0.850006 0.000976562Z" fill="#707070"/>
<path d="M10.35 1.70117V5.95117H14.6V1.70117H10.35ZM9.5 0.000976562H15.45C15.5616 0.000976562 15.6721 0.0232015 15.7753 0.065918C15.8784 0.108634 15.9721 0.17107 16.051 0.25C16.13 0.32893 16.1926 0.422752 16.2353 0.525879C16.278 0.629006 16.3 0.739451 16.3 0.851074V6.80078C16.3 7.02622 16.2104 7.24245 16.051 7.40186C15.8916 7.56126 15.6754 7.65088 15.45 7.65088H9.5C9.27457 7.65088 9.05836 7.56126 8.89896 7.40186C8.73955 7.24245 8.64999 7.02622 8.64999 6.80078V0.851074C8.64999 0.739451 8.67197 0.629006 8.71469 0.525879C8.75741 0.422752 8.82003 0.32893 8.89896 0.25C8.97789 0.17107 9.07159 0.108634 9.17471 0.065918C9.27784 0.0232015 9.38838 0.000976562 9.5 0.000976562Z" fill="#707070"/>
<path d="M1.70001 10.3511V14.6001H5.95001V10.3511H1.70001ZM0.850006 8.65088H6.79999C6.91165 8.65075 7.02224 8.67266 7.12543 8.71533C7.22861 8.758 7.32238 8.82046 7.40134 8.89941C7.48029 8.97837 7.5429 9.07211 7.58557 9.17529C7.62824 9.27848 7.65013 9.38932 7.64999 9.50098V15.4507C7.64999 15.5623 7.62801 15.6732 7.5853 15.7764C7.54258 15.8795 7.47996 15.9728 7.40103 16.0518C7.3221 16.1307 7.2284 16.1936 7.12527 16.2363C7.02215 16.279 6.91161 16.3008 6.79999 16.3008H0.850006C0.738383 16.3008 0.627846 16.279 0.524719 16.2363C0.421592 16.1936 0.327892 16.1307 0.248962 16.0518C0.170033 15.9728 0.107414 15.8795 0.0646973 15.7764C0.0219808 15.6732 0 15.5623 0 15.4507V9.50098C0 9.27554 0.0895565 9.05931 0.248962 8.8999C0.408368 8.7405 0.624572 8.65088 0.850006 8.65088Z" fill="#707070"/>
<path d="M10.35 10.3511V14.6001H14.6V10.3511H10.35ZM9.5 8.65088H15.45C15.5616 8.65075 15.6722 8.67266 15.7754 8.71533C15.8786 8.758 15.9724 8.82046 16.0513 8.89941C16.1303 8.97837 16.1929 9.07211 16.2356 9.17529C16.2782 9.27848 16.3001 9.38932 16.3 9.50098V15.4507C16.3 15.5623 16.278 15.6732 16.2353 15.7764C16.1926 15.8795 16.13 15.9728 16.051 16.0518C15.9721 16.1307 15.8784 16.1936 15.7753 16.2363C15.6721 16.279 15.5616 16.3008 15.45 16.3008H9.5C9.38838 16.3008 9.27784 16.279 9.17471 16.2363C9.07159 16.1936 8.97789 16.1307 8.89896 16.0518C8.82003 15.9728 8.75741 15.8795 8.71469 15.7764C8.67197 15.6732 8.64999 15.5623 8.64999 15.4507V9.50098C8.64999 9.38935 8.67197 9.27891 8.71469 9.17578C8.75741 9.07266 8.82003 8.97883 8.89896 8.8999C8.97789 8.82097 9.07159 8.75854 9.17471 8.71582C9.27784 8.6731 9.38838 8.65088 9.5 8.65088Z" fill="#707070"/>
</svg>
