<svg width="26" height="24" viewBox="0 0 26 24" fill="none" xmlns="http://www.w3.org/2000/svg">
<path d="M9.41389 15.5822C9.17774 15.5822 8.9469 15.6522 8.75054 15.7834C8.55419 15.9146 8.40115 16.1011 8.31078 16.3193C8.22041 16.5375 8.19677 16.7775 8.24284 17.0092C8.28891 17.2408 8.40263 17.4535 8.56961 17.6205C8.73659 17.7875 8.94934 17.9012 9.18096 17.9473C9.41257 17.9933 9.65264 17.9697 9.87082 17.8793C10.089 17.789 10.2755 17.6359 10.4067 17.4396C10.5379 17.2432 10.6079 17.0124 10.6079 16.7762C10.6079 16.4595 10.4821 16.1558 10.2582 15.9319C10.0343 15.708 9.73056 15.5822 9.41389 15.5822ZM24.9389 14.7262C24.2789 14.7262 23.9999 15.3172 23.9999 15.9762V17.5842C23.9999 18.2442 24.2799 18.7752 24.9389 18.7752C25.5979 18.7752 25.8459 18.2442 25.8459 17.5842V15.9772C25.8459 15.3172 25.5989 14.7262 24.9389 14.7262ZM18.9679 6.02622H14.1909V4.50022C14.6464 4.23735 15.0025 3.8315 15.2039 3.34562C15.4052 2.85974 15.4406 2.321 15.3046 1.81295C15.1685 1.30491 14.8686 0.855962 14.4513 0.535759C14.0341 0.215556 13.5228 0.0419922 12.9969 0.0419922C12.4709 0.0419922 11.9597 0.215556 11.5424 0.535759C11.1252 0.855962 10.8253 1.30491 10.6892 1.81295C10.5532 2.321 10.5886 2.85974 10.7899 3.34562C10.9913 3.8315 11.3473 4.23735 11.8029 4.50022V6.02822H7.02489C6.07462 6.02822 5.16327 6.40571 4.49133 7.07765C3.81939 7.74959 3.44189 8.66094 3.44189 9.61122V20.3572C3.44189 21.3075 3.81939 22.2188 4.49133 22.8908C5.16327 23.5627 6.07462 23.9402 7.02489 23.9402H18.9679C19.9182 23.9402 20.8295 23.5627 21.5015 22.8908C22.1734 22.2188 22.5509 21.3075 22.5509 20.3572V9.61122C22.5509 8.66094 22.1734 7.74959 21.5015 7.07765C20.8295 6.40571 19.9182 6.02822 18.9679 6.02822V6.02622ZM15.7349 8.41722L14.9969 11.8052H11.1729L10.2669 8.41722H15.7349ZM20.8979 20.3572C20.7619 20.8053 20.5129 21.211 20.1749 21.5351C19.837 21.8593 19.4213 22.091 18.9679 22.2082H7.02489C6.59315 22.0856 6.20237 21.8491 5.89357 21.5234C5.58477 21.1977 5.36934 20.7949 5.26989 20.3572L5.10189 9.61122C5.23247 9.14504 5.47641 8.71843 5.81195 8.36945C6.14749 8.02048 6.5642 7.75998 7.02489 7.61122H8.52489L9.4149 12.2912C9.48016 12.5562 9.63425 12.7909 9.85151 12.9561C10.0688 13.1213 10.3361 13.2071 10.6089 13.1992H15.3859C15.6587 13.2071 15.926 13.1213 16.1433 12.9561C16.3605 12.7909 16.5146 12.5562 16.5799 12.2912L17.5699 7.61122H19.2209C19.8809 7.61122 20.8979 8.95622 20.8979 9.61122V20.3572ZM16.5789 15.5802C16.3427 15.5802 16.1119 15.6502 15.9155 15.7814C15.7192 15.9126 15.5662 16.0991 15.4758 16.3173C15.3854 16.5355 15.3618 16.7755 15.4078 17.0072C15.4539 17.2388 15.5676 17.4515 15.7346 17.6185C15.9016 17.7855 16.1143 17.8992 16.346 17.9453C16.5776 17.9913 16.8176 17.9677 17.0358 17.8773C17.254 17.787 17.4405 17.6339 17.5717 17.4376C17.7029 17.2412 17.7729 17.0104 17.7729 16.7742C17.7724 16.4579 17.6463 16.1547 17.4225 15.9312C17.1986 15.7077 16.8952 15.5822 16.5789 15.5822V15.5802Z" fill="#707070"/>
<path d="M0.939001 14.7263C0.279001 14.7263 0 15.3173 0 15.9763V17.5843C0 18.2443 0.280001 18.7753 0.939001 18.7753C1.598 18.7753 1.846 18.2443 1.846 17.5843V15.9773C1.846 15.3173 1.599 14.7263 0.939001 14.7263Z" fill="#707070"/>
</svg>
