<svg width="21" height="25" viewBox="0 0 21 25" fill="none" xmlns="http://www.w3.org/2000/svg">
<path d="M16.04 7.993H18.664C19.0402 7.97713 19.3949 7.81298 19.6505 7.5364C19.9061 7.25983 20.0418 6.89333 20.028 6.517V2.747C20.042 2.3705 19.9064 2.00374 19.6508 1.72695C19.3952 1.45016 19.0404 1.28587 18.664 1.27H15.408C15.2832 0.905992 15.0497 0.589032 14.7391 0.36192C14.4285 0.134808 14.0557 0.00848235 13.671 0H5.10296C4.58656 0.0218489 4.09979 0.247206 3.74902 0.626829C3.39825 1.00645 3.212 1.50948 3.23096 2.026V9.452H1.36496C0.988707 9.46787 0.634037 9.63202 0.378451 9.9086C0.122865 10.1852 -0.0128524 10.5517 0.000959831 10.928V14.7C-0.0128524 15.0763 0.122865 15.4428 0.378451 15.7194C0.634037 15.996 0.988707 16.1601 1.36496 16.176H3.22996V22.03C3.211 22.5465 3.39725 23.0495 3.74802 23.4292C4.09879 23.8088 4.58555 24.0342 5.10196 24.056H13.67C14.1864 24.0342 14.6731 23.8088 15.0239 23.4292C15.3747 23.0495 15.5609 22.5465 15.542 22.03C15.608 19.171 15.468 15.411 15.542 12.378V8.56L16.04 7.993ZM19.401 2.747V6.517C19.4091 6.72076 19.3361 6.91942 19.1979 7.0694C19.0597 7.21938 18.8677 7.30842 18.664 7.317H15.905C15.8615 7.31712 15.8187 7.32666 15.7793 7.34496C15.74 7.36326 15.705 7.38989 15.677 7.423L15.066 8.123V7.659C15.0692 7.57243 15.038 7.4881 14.9791 7.42454C14.9202 7.36098 14.8385 7.32338 14.752 7.32H14.306C14.1022 7.31142 13.9102 7.22238 13.772 7.0724C13.6339 6.92242 13.5608 6.72376 13.569 6.52V2.75C13.5608 2.54624 13.6339 2.34758 13.772 2.1976C13.9102 2.04762 14.1022 1.95858 14.306 1.95H18.663C18.8663 1.95833 19.0581 2.04684 19.1964 2.1962C19.3347 2.34555 19.4083 2.54358 19.401 2.747ZM7.24396 0.679H11.529V1.3C11.5301 1.34293 11.5144 1.3846 11.4853 1.41616C11.4561 1.44772 11.4158 1.46667 11.373 1.469H7.40096C7.35808 1.46667 7.31779 1.44772 7.28866 1.41616C7.25953 1.3846 7.24385 1.34293 7.24496 1.3L7.24396 0.679ZM0.627959 14.7V10.93C0.619833 10.7262 0.692867 10.5276 0.831034 10.3776C0.969201 10.2276 1.16122 10.1386 1.36496 10.13H4.14096C4.19392 10.4491 4.35574 10.74 4.59893 10.9533C4.84212 11.1666 5.15167 11.2891 5.47496 11.3H6.45996V14.7C6.46808 14.9038 6.39505 15.1024 6.25688 15.2524C6.11872 15.4024 5.9267 15.4914 5.72296 15.5H5.27696C5.19039 15.5034 5.1087 15.541 5.04983 15.6045C4.99096 15.6681 4.95971 15.7524 4.96296 15.839V16.3L4.35196 15.6C4.32389 15.5669 4.28897 15.5403 4.2496 15.522C4.21024 15.5037 4.16737 15.4941 4.12396 15.494H1.36496C1.16122 15.4854 0.969201 15.3964 0.831034 15.2464C0.692867 15.0964 0.619833 14.8978 0.627959 14.694V14.7ZM5.47396 10.62C5.37303 10.6159 5.27391 10.5919 5.18224 10.5495C5.09058 10.507 5.00817 10.447 4.93973 10.3727C4.87129 10.2984 4.81816 10.2113 4.78337 10.1165C4.74857 10.0217 4.7328 9.92093 4.73696 9.82V6.052C4.72883 5.84824 4.80187 5.64958 4.94004 5.4996C5.0782 5.34962 5.27022 5.26058 5.47396 5.252H9.83096C10.0347 5.26058 10.2267 5.34962 10.3649 5.4996C10.5031 5.64958 10.5761 5.84824 10.568 6.052V9.823C10.5721 9.92393 10.5563 10.0247 10.5216 10.1195C10.4868 10.2143 10.4336 10.3014 10.3652 10.3757C10.2968 10.45 10.2143 10.51 10.1227 10.5525C10.031 10.5949 9.93188 10.6189 9.83096 10.623H9.38496C9.29839 10.6264 9.2167 10.664 9.15783 10.7275C9.09896 10.7911 9.06771 10.8754 9.07096 10.962V11.426L8.45996 10.726C8.43189 10.6929 8.39696 10.6663 8.3576 10.648C8.31824 10.6297 8.27537 10.6201 8.23196 10.62H5.47396ZM3.98896 16.177L5.04796 17.387C5.07603 17.4201 5.11096 17.4467 5.15032 17.465C5.18968 17.4833 5.23255 17.4929 5.27596 17.493C5.31586 17.493 5.35534 17.4848 5.39196 17.469C5.45238 17.4417 5.5035 17.3974 5.53903 17.3414C5.57456 17.2854 5.59296 17.2203 5.59196 17.154V16.178H5.72396C6.10039 16.1619 6.45512 15.9973 6.71055 15.7204C6.96598 15.4434 7.10132 15.0765 7.08696 14.7V11.3H8.09896L9.15796 12.51C9.18603 12.5431 9.22095 12.5697 9.26032 12.588C9.29968 12.6063 9.34255 12.6159 9.38596 12.616C9.42586 12.616 9.46534 12.6078 9.50196 12.592C9.56238 12.5647 9.6135 12.5204 9.64903 12.4644C9.68456 12.4084 9.70296 12.3433 9.70196 12.277V11.3H9.83396C10.2101 11.2844 10.5648 11.1205 10.8204 10.844C11.076 10.5676 11.2118 10.2012 11.198 9.825V6.052C11.2118 5.67567 11.0761 5.30917 10.8205 5.0326C10.5649 4.75602 10.2102 4.59187 9.83396 4.576H5.47496C5.09871 4.59187 4.74404 4.75602 4.48845 5.0326C4.23287 5.30917 4.09715 5.67567 4.11096 6.052V9.452H3.85296V2.026C3.84026 1.68166 3.96478 1.34636 4.19917 1.09378C4.43356 0.841208 4.75863 0.692019 5.10296 0.679H6.61696V1.3C6.60911 1.51625 6.68715 1.72682 6.83405 1.88571C6.98095 2.0446 7.18476 2.13889 7.40096 2.148H11.373C11.5884 2.13787 11.7912 2.04313 11.9373 1.88435C12.0833 1.72557 12.1608 1.51559 12.153 1.3V0.679H13.667C13.8746 0.681983 14.078 0.73781 14.258 0.841214C14.4381 0.944618 14.5888 1.09219 14.696 1.27H14.303C13.9267 1.28587 13.572 1.45002 13.3165 1.7266C13.0609 2.00317 12.9251 2.36967 12.939 2.746V6.516C12.9251 6.89233 13.0609 7.25883 13.3165 7.5354C13.572 7.81198 13.9267 7.97613 14.303 7.992H14.435V8.968C14.434 9.03429 14.4524 9.09942 14.4879 9.15539C14.5234 9.21135 14.5745 9.25571 14.635 9.283C14.6716 9.29882 14.7111 9.30698 14.751 9.307C14.809 9.30645 14.8656 9.28908 14.914 9.257V20.677H3.85296V16.177H3.98896ZM13.67 23.377H5.10296C4.75845 23.364 4.43322 23.2147 4.1988 22.9619C3.96439 22.7091 3.83999 22.3735 3.85296 22.029V21.358H14.916V22.029C14.9287 22.3725 14.8048 22.7071 14.5715 22.9595C14.3382 23.2119 14.0144 23.3617 13.671 23.376L13.67 23.377ZM4.55296 14.838C4.61982 14.8374 4.68458 14.8146 4.73696 14.773C4.78405 14.7346 4.82041 14.6847 4.84249 14.6281C4.86457 14.5715 4.87162 14.5101 4.86296 14.45L4.72396 13.408L5.40296 12.654C5.44336 12.608 5.47136 12.5524 5.4843 12.4926C5.49725 12.4328 5.49472 12.3706 5.47696 12.312C5.46126 12.2548 5.43007 12.2031 5.38684 12.1625C5.34361 12.1219 5.29001 12.0941 5.23196 12.082L4.27396 11.903L3.81996 10.972C3.79736 10.917 3.75891 10.8699 3.7095 10.8368C3.66009 10.8037 3.60194 10.786 3.54246 10.786C3.48298 10.786 3.42483 10.8037 3.37542 10.8368C3.32601 10.8699 3.28756 10.917 3.26496 10.972L2.81096 11.903L1.85296 12.082C1.79495 12.0942 1.74141 12.1221 1.69819 12.1626C1.65498 12.2032 1.62376 12.2549 1.60796 12.312C1.59019 12.3706 1.58766 12.4328 1.60061 12.4926C1.61356 12.5524 1.64156 12.608 1.68196 12.654L2.36096 13.408L2.22196 14.45C2.2134 14.5101 2.2205 14.5715 2.24257 14.628C2.26464 14.6846 2.30094 14.7345 2.34796 14.773C2.39292 14.8091 2.44751 14.8312 2.50495 14.8366C2.56238 14.8419 2.62011 14.8302 2.67096 14.803L3.54396 14.338L4.41696 14.803C4.45879 14.8255 4.50546 14.8375 4.55296 14.838ZM4.08096 13.338L4.15696 13.907L3.67996 13.653C3.6374 13.6301 3.58981 13.6181 3.54146 13.6181C3.49311 13.6181 3.44552 13.6301 3.40296 13.653L2.92596 13.907L3.00196 13.338C3.00898 13.2871 3.00493 13.2353 2.99008 13.1861C2.97524 13.1369 2.94996 13.0915 2.91596 13.053L2.54496 12.64L3.06896 12.54C3.11747 12.5302 3.16301 12.5092 3.20192 12.4787C3.24082 12.4481 3.27201 12.4088 3.29296 12.364L3.54096 11.854L3.78896 12.364C3.80991 12.4088 3.8411 12.4481 3.88 12.4787C3.91891 12.5092 3.96445 12.5302 4.01296 12.54L4.53696 12.64L4.16596 13.053C4.13227 13.092 4.10741 13.1379 4.09309 13.1874C4.07876 13.237 4.07531 13.289 4.08296 13.34L4.08096 13.338ZM16.34 6.422C16.3839 6.4468 16.4335 6.45983 16.484 6.45983C16.5344 6.45983 16.584 6.4468 16.628 6.422C18.234 5.522 18.414 4.557 18.379 4.061C18.3656 3.80057 18.2783 3.54934 18.1272 3.33679C17.9761 3.12424 17.7675 2.95919 17.526 2.861C17.348 2.79177 17.1533 2.77813 16.9674 2.82187C16.7816 2.86561 16.6133 2.96468 16.485 3.106C16.3566 2.96468 16.1884 2.86561 16.0025 2.82187C15.8166 2.77813 15.6219 2.79177 15.444 2.861C15.2024 2.95919 14.9938 3.12424 14.8427 3.33679C14.6916 3.54934 14.6043 3.80057 14.591 4.061C14.553 4.558 14.735 5.525 16.342 6.423L16.34 6.422ZM15.215 4.113C15.2209 3.98165 15.2643 3.85474 15.3399 3.7472C15.4156 3.63967 15.5203 3.55598 15.642 3.506C15.6894 3.48861 15.7394 3.47948 15.79 3.479C15.8439 3.47904 15.8971 3.49162 15.9453 3.51574C15.9936 3.53986 16.0356 3.57487 16.068 3.618L16.248 3.841C16.276 3.87676 16.3119 3.90568 16.3527 3.92557C16.3936 3.94545 16.4385 3.95579 16.484 3.95579C16.5294 3.95579 16.5743 3.94545 16.6152 3.92557C16.6561 3.90568 16.6919 3.87676 16.72 3.841L16.9 3.619C16.9488 3.55586 17.0172 3.51064 17.0944 3.49038C17.1716 3.47012 17.2534 3.47597 17.327 3.507C17.4485 3.55708 17.5532 3.64079 17.6289 3.74831C17.7045 3.85583 17.7479 3.98269 17.754 4.114C17.792 4.643 17.331 5.229 16.485 5.736C15.639 5.23 15.178 4.644 15.216 4.115L15.215 4.113ZM7.82496 18.151C7.82982 18.09 7.85237 18.0317 7.88984 17.9832C7.92732 17.9348 7.9781 17.8983 8.03597 17.8783C8.09384 17.8583 8.15629 17.8556 8.21568 17.8705C8.27507 17.8854 8.32883 17.9173 8.37037 17.9623C8.41192 18.0073 8.43945 18.0634 8.44961 18.1238C8.45976 18.1842 8.45209 18.2462 8.42753 18.3023C8.40298 18.3584 8.36261 18.4061 8.31136 18.4396C8.26011 18.4732 8.2002 18.491 8.13896 18.491C8.0523 18.4874 7.97061 18.4495 7.91177 18.3858C7.85292 18.3221 7.82171 18.2377 7.82496 18.151ZM9.07196 18.151C9.07682 18.09 9.09937 18.0317 9.13684 17.9832C9.17432 17.9348 9.22509 17.8983 9.28296 17.8783C9.34083 17.8583 9.40329 17.8556 9.46268 17.8705C9.52207 17.8854 9.57583 17.9173 9.61738 17.9623C9.65892 18.0073 9.68646 18.0634 9.69661 18.1238C9.70676 18.1842 9.69909 18.2462 9.67454 18.3023C9.64998 18.3584 9.60961 18.4061 9.55836 18.4396C9.5071 18.4732 9.44719 18.491 9.38596 18.491C9.2993 18.4874 9.21761 18.4495 9.15877 18.3858C9.09992 18.3221 9.06871 18.2377 9.07196 18.151ZM10.321 18.151C10.3258 18.09 10.3484 18.0317 10.3858 17.9832C10.4233 17.9348 10.4741 17.8983 10.532 17.8783C10.5898 17.8583 10.6523 17.8556 10.7117 17.8705C10.7711 17.8854 10.8248 17.9173 10.8664 17.9623C10.9079 18.0073 10.9355 18.0634 10.9456 18.1238C10.9558 18.1842 10.9481 18.2462 10.9235 18.3023C10.899 18.3584 10.8586 18.4061 10.8074 18.4396C10.7561 18.4732 10.6962 18.491 10.635 18.491C10.5483 18.4874 10.4666 18.4495 10.4078 18.3858C10.3489 18.3221 10.3177 18.2377 10.321 18.151ZM9.13796 9.6L9.57996 7.814C9.59753 7.74444 9.59993 7.67191 9.58699 7.60133C9.57405 7.53076 9.54607 7.4638 9.50496 7.405C9.46644 7.34805 9.41461 7.30135 9.35398 7.26894C9.29334 7.23653 9.22571 7.21939 9.15696 7.219H8.22796V6.4C8.23256 6.27937 8.18914 6.16184 8.10723 6.07317C8.02531 5.98451 7.91158 5.93194 7.79096 5.927H7.73796C7.65785 5.92795 7.57962 5.95131 7.5121 5.99443C7.44459 6.03755 7.3905 6.09872 7.35596 6.171L6.86196 7.134C6.81823 7.11878 6.77226 7.11101 6.72596 7.111H6.15896C6.03561 7.1162 5.91933 7.17004 5.83556 7.26074C5.7518 7.35144 5.70735 7.47162 5.71196 7.595V9.382C5.70735 9.50538 5.7518 9.62556 5.83556 9.71626C5.91933 9.80696 6.03561 9.8608 6.15896 9.866H6.72596C6.82352 9.86442 6.91752 9.82908 6.99196 9.766L7.20496 9.899C7.25212 9.92823 7.30647 9.94381 7.36196 9.944H8.71496C8.81418 9.9408 8.90951 9.90467 8.98592 9.84129C9.06233 9.77792 9.11547 9.69092 9.13696 9.594L9.13796 9.6ZM6.54596 9.189H6.33996V7.789H6.54596V9.189ZM7.44596 9.271L7.17296 9.1V7.927L7.60096 7.092V7.556C7.59771 7.64257 7.62896 7.7269 7.68783 7.79046C7.7467 7.85402 7.82839 7.89162 7.91496 7.895H8.90896L8.56896 9.269L7.44596 9.271ZM10.57 22.371C10.5732 22.4576 10.542 22.5419 10.4831 22.6055C10.4242 22.669 10.3425 22.7066 10.256 22.71H8.51696C8.43242 22.702 8.3539 22.6628 8.29674 22.6C8.23959 22.5373 8.20791 22.4554 8.20791 22.3705C8.20791 22.2856 8.23959 22.2037 8.29674 22.1409C8.3539 22.0782 8.43242 22.039 8.51696 22.031H10.253C10.3395 22.0336 10.4215 22.0705 10.4809 22.1334C10.5404 22.1964 10.5724 22.2804 10.57 22.367V22.371Z" fill="#707070"/>
</svg>
