<svg width="26" height="26" viewBox="0 0 26 26" fill="none" xmlns="http://www.w3.org/2000/svg">
<path d="M14.773 8.02119C14.6862 8.02111 14.6006 8.00199 14.522 7.96519L12.551 7.05119L10.579 7.96519C10.4834 8.00865 10.3782 8.02628 10.2737 8.01633C10.1692 8.00637 10.0691 7.96917 9.98348 7.90844C9.89785 7.84772 9.82966 7.76559 9.78571 7.67026C9.74175 7.57493 9.72358 7.46974 9.733 7.36519L9.969 5.03119L8.534 3.62119C8.46045 3.54697 8.40756 3.45484 8.38056 3.3539C8.35356 3.25296 8.35339 3.14673 8.38006 3.0457C8.40673 2.94468 8.45932 2.85237 8.53262 2.77791C8.60593 2.70346 8.6974 2.64943 8.798 2.62119L10.753 2.09319L12.063 0.238189C12.1209 0.164007 12.1949 0.103999 12.2795 0.0627253C12.364 0.021452 12.4569 0 12.551 0C12.6451 0 12.738 0.021452 12.8225 0.0627253C12.9071 0.103999 12.9811 0.164007 13.039 0.238189L14.348 2.09119L16.303 2.61919C16.4036 2.64743 16.4951 2.70146 16.5684 2.77591C16.6417 2.85037 16.6943 2.94268 16.7209 3.0437C16.7476 3.14472 16.7474 3.25096 16.7204 3.3519C16.6934 3.45284 16.6405 3.54497 16.567 3.61919L15.132 5.03119L15.368 7.36019C15.3761 7.44321 15.3667 7.52701 15.3406 7.60622C15.3144 7.68544 15.2721 7.75833 15.2162 7.82025C15.1603 7.88217 15.0921 7.93175 15.016 7.96583C14.9398 7.99991 14.8574 8.01775 14.774 8.01819L14.773 8.02119ZM12.551 5.79519C12.6377 5.7955 12.7234 5.8146 12.802 5.85119L14.073 6.44019L13.914 4.87019C13.9051 4.78126 13.9162 4.69148 13.9465 4.60739C13.9768 4.52331 14.0255 4.44705 14.089 4.38419L14.989 3.50019L13.831 3.18719C13.6968 3.15068 13.5794 3.06867 13.499 2.95519L12.551 1.61819L11.606 2.95619C11.5256 3.06967 11.4082 3.15167 11.274 3.18819L10.116 3.50119L11.016 4.38519C11.0795 4.44805 11.1282 4.52431 11.1585 4.60839C11.1888 4.69248 11.1999 4.78226 11.191 4.87119L11.032 6.44119L12.303 5.85219C12.3816 5.8156 12.4673 5.7965 12.554 5.79619L12.551 5.79519Z" fill="#707070"/>
<path d="M15.739 25.0812H9.366C9.20687 25.0812 9.05426 25.018 8.94173 24.9055C8.82921 24.7929 8.766 24.6403 8.766 24.4812V11.7362C8.76758 11.367 8.91495 11.0133 9.17604 10.7522C9.43712 10.4911 9.79077 10.3438 10.16 10.3422H14.94C15.3092 10.3438 15.6629 10.4911 15.924 10.7522C16.185 11.0133 16.3324 11.367 16.334 11.7362V24.4832C16.3335 24.6411 16.2707 24.7925 16.1593 24.9044C16.0479 25.0164 15.8969 25.0799 15.739 25.0812ZM9.963 23.8812H15.142V11.7362C15.142 11.6832 15.1209 11.6323 15.0834 11.5948C15.0459 11.5573 14.995 11.5362 14.942 11.5362H10.162C10.109 11.5362 10.0581 11.5573 10.0206 11.5948C9.98307 11.6323 9.962 11.6832 9.962 11.7362L9.963 23.8812Z" fill="#707070"/>
<path d="M22.112 25.0782H15.739C15.5799 25.0782 15.4273 25.015 15.3147 24.9024C15.2022 24.7899 15.139 24.6373 15.139 24.4782V14.1262C15.139 14.0474 15.1545 13.9694 15.1847 13.8966C15.2148 13.8238 15.259 13.7576 15.3147 13.7019C15.3705 13.6462 15.4366 13.602 15.5094 13.5719C15.5822 13.5417 15.6602 13.5262 15.739 13.5262H21.316C21.6852 13.5278 22.0389 13.6751 22.3 13.9362C22.561 14.1973 22.7084 14.551 22.71 14.9202V24.4782C22.71 24.637 22.6471 24.7893 22.535 24.9017C22.4229 25.0142 22.2708 25.0777 22.112 25.0782ZM16.336 23.8782H21.515V14.9222C21.515 14.8691 21.4939 14.8183 21.4564 14.7808C21.4189 14.7433 21.368 14.7222 21.315 14.7222H16.336V23.8782Z" fill="#707070"/>
<path d="M9.364 25.0812H2.991C2.91221 25.0812 2.83418 25.0657 2.76139 25.0355C2.68859 25.0054 2.62245 24.9612 2.56673 24.9055C2.51102 24.8497 2.46682 24.7836 2.43667 24.7108C2.40652 24.638 2.391 24.56 2.391 24.4812V18.1102C2.39258 17.7406 2.54023 17.3867 2.80175 17.1255C3.06326 16.8644 3.41743 16.7172 3.787 16.7162H9.364C9.52313 16.7162 9.67574 16.7794 9.78826 16.8919C9.90078 17.0044 9.964 17.1571 9.964 17.3162V24.4862C9.96268 24.6444 9.89888 24.7958 9.7865 24.9072C9.67413 25.0187 9.52227 25.0812 9.364 25.0812ZM3.588 23.8812H8.767V17.9112H3.787C3.73396 17.9112 3.68308 17.9323 3.64558 17.9698C3.60807 18.0073 3.587 18.0581 3.587 18.1112L3.588 23.8812Z" fill="#707070"/>
<path d="M24.501 25.0812H0.6C0.44087 25.0812 0.288258 25.018 0.175736 24.9055C0.0632141 24.7929 0 24.6403 0 24.4812C0 24.3221 0.0632141 24.1695 0.175736 24.0569C0.288258 23.9444 0.44087 23.8812 0.6 23.8812H24.5C24.6591 23.8812 24.8117 23.9444 24.9243 24.0569C25.0368 24.1695 25.1 24.3221 25.1 24.4812C25.1 24.6403 25.0368 24.7929 24.9243 24.9055C24.8117 25.018 24.6591 25.0812 24.5 25.0812H24.501Z" fill="#707070"/>
</svg>
