<svg width="25" height="24" viewBox="0 0 25 24" fill="none" xmlns="http://www.w3.org/2000/svg">
<path d="M23.073 11.9308V8.59982C23.0662 8.055 22.8542 7.53277 22.4795 7.13726C22.1047 6.74174 21.5947 6.502 21.051 6.46582L17.9 1.07682C17.7553 0.830754 17.5634 0.615726 17.3354 0.444106C17.1073 0.272486 16.8475 0.147662 16.571 0.0768172C16.0121 -0.0728176 15.4168 0.00370607 14.914 0.289817L4.1 6.45382H2.2C1.62398 6.44767 1.06901 6.67008 0.656654 7.07232C0.244296 7.47455 0.00817005 8.02383 0 8.59982V21.5108C0.00685736 22.0877 0.242406 22.6382 0.654907 23.0415C1.06741 23.4449 1.62313 23.668 2.2 23.6618H20.876C21.4529 23.668 22.0086 23.4449 22.4211 23.0415C22.8336 22.6382 23.0691 22.0877 23.076 21.5108V18.1858C23.3939 18.079 23.6707 17.8758 23.8678 17.6045C24.065 17.3332 24.1727 17.0072 24.176 16.6718V13.4448C24.1725 13.1091 24.0643 12.7828 23.8666 12.5114C23.6689 12.2401 23.3915 12.0371 23.073 11.9308ZM19.773 6.45382H14.987L18.578 4.40682L19.773 6.45382ZM18.03 3.47382L12.8 6.45382H10.635L17.49 2.54682L18.03 3.47382ZM15.467 1.21882C15.7152 1.07698 16.0092 1.03858 16.2854 1.11195C16.5617 1.18532 16.7979 1.36454 16.943 1.61082L8.451 6.45382H6.283L15.467 1.21882ZM21.975 21.5108C21.9716 21.7993 21.8538 22.0746 21.6476 22.2764C21.4413 22.4781 21.1635 22.5898 20.875 22.5868H2.2C1.91152 22.5898 1.63366 22.4781 1.42742 22.2764C1.22119 22.0746 1.10343 21.7993 1.1 21.5108V8.59982C1.10474 8.31221 1.22307 8.03816 1.42917 7.8375C1.63526 7.63684 1.91237 7.52587 2.2 7.52882H20.876C21.1645 7.52588 21.4423 7.63754 21.6486 7.83928C21.8548 8.04101 21.9726 8.31634 21.976 8.60482V11.8318H18.676C18.2475 11.8243 17.8218 11.9022 17.4237 12.0609C17.0257 12.2197 16.6632 12.4561 16.3575 12.7565C16.0518 13.0568 15.809 13.4151 15.6433 13.8103C15.4776 14.2055 15.3922 14.6298 15.3922 15.0583C15.3922 15.4869 15.4776 15.9111 15.6433 16.3063C15.809 16.7016 16.0518 17.0598 16.3575 17.3601C16.6632 17.6605 17.0257 17.897 17.4237 18.0557C17.8218 18.2145 18.2475 18.2924 18.676 18.2848H21.976L21.975 21.5108ZM23.075 16.6708C23.0734 16.8149 23.0147 16.9525 22.9118 17.0534C22.8089 17.1542 22.6701 17.2101 22.526 17.2088H18.679C18.3889 17.2213 18.0992 17.175 17.8274 17.0726C17.5557 16.9702 17.3074 16.8138 17.0977 16.613C16.888 16.4121 16.7211 16.1708 16.607 15.9037C16.493 15.6366 16.4342 15.3492 16.4342 15.0588C16.4342 14.7684 16.493 14.481 16.607 14.2139C16.7211 13.9468 16.888 13.7056 17.0977 13.5047C17.3074 13.3038 17.5557 13.1474 17.8274 13.045C18.0992 12.9426 18.3889 12.8963 18.679 12.9088H22.524C22.6681 12.9075 22.8069 12.9634 22.9098 13.0643C23.0127 13.1651 23.0714 13.3027 23.073 13.4468L23.075 16.6708Z" fill="#707070"/>
<path d="M18.579 13.7378C18.3292 13.7378 18.085 13.8119 17.8773 13.9507C17.6696 14.0894 17.5077 14.2867 17.4121 14.5175C17.3166 14.7482 17.2915 15.0022 17.3403 15.2472C17.389 15.4922 17.5093 15.7172 17.6859 15.8939C17.8626 16.0705 18.0876 16.1908 18.3326 16.2395C18.5776 16.2883 18.8316 16.2633 19.0624 16.1677C19.2931 16.0721 19.4904 15.9102 19.6292 15.7025C19.7679 15.4948 19.842 15.2506 19.842 15.0008C19.8415 14.666 19.7082 14.3451 19.4715 14.1083C19.2348 13.8716 18.9138 13.7383 18.579 13.7378Z" fill="#707070"/>
</svg>
