<svg width="27" height="25" viewBox="0 0 27 25" fill="none" xmlns="http://www.w3.org/2000/svg">
<path d="M26.3072 17.1568C19.7682 5.83581 16.7402 0.118811 16.1212 0.736811C15.5359 0.380586 14.8844 0.14683 14.2061 0.0496908C13.5278 -0.0474483 12.8369 -0.00595072 12.1751 0.171672C11.5133 0.349295 10.8944 0.65935 10.3559 1.08307C9.81745 1.50679 9.37053 2.03537 9.04224 2.63681C8.18724 4.10081 12.1152 -2.69919 0.703239 17.0778C0.020439 18.2344 -0.174934 19.6149 0.1601 20.9156C0.495134 22.2162 1.33313 23.3305 2.48974 24.0133C3.64635 24.6961 5.02683 24.8915 6.32749 24.5564C7.62814 24.2214 8.74244 23.3834 9.42524 22.2268C9.82524 21.5268 7.98424 24.7268 13.4822 15.1928L17.5342 22.2268C18.2118 23.3782 19.3168 24.2152 20.6087 24.5556C21.9005 24.8961 23.2745 24.7124 24.4315 24.0445C25.5885 23.3767 26.4348 22.2787 26.7861 20.9898C27.1375 19.7009 26.9653 18.3254 26.3072 17.1628V17.1568ZM5.04124 23.6338C4.34947 23.6346 3.6697 23.4532 3.07031 23.1078C2.47092 22.7625 1.97304 22.2654 1.62678 21.6665C1.28052 21.0676 1.09807 20.3881 1.0978 19.6964C1.09753 19.0046 1.27944 18.3249 1.62524 17.7258C1.6396 17.7022 1.65262 17.6779 1.66424 17.6528C4.03324 13.7418 10.1892 16.4038 8.77724 20.8828C8.52597 21.6779 8.02885 22.3728 7.35747 22.8673C6.6861 23.3619 5.87509 23.6306 5.04124 23.6348V23.6338ZM10.0412 18.9068C9.92364 18.1611 9.64082 17.451 9.21347 16.8287C8.78611 16.2063 8.22503 15.6873 7.57127 15.3097C6.91751 14.9321 6.18761 14.7055 5.43496 14.6463C4.68232 14.5872 3.92596 14.697 3.22124 14.9678L8.47724 5.86381C8.68524 7.18081 9.07724 7.58581 12.8272 14.0848L10.0412 18.9068ZM21.9202 23.6338C21.2291 23.6336 20.5501 23.4516 19.9515 23.106C19.353 22.7604 18.8559 22.2633 18.5102 21.6648C9.19424 5.52581 9.54324 6.48281 9.54324 5.06481C9.5436 4.37954 9.72272 3.70621 10.0629 3.11134C10.4031 2.51648 10.8926 2.02066 11.4831 1.67287C12.0736 1.32507 12.7445 1.13734 13.4298 1.12821C14.115 1.11908 14.7907 1.28887 15.3902 1.62081C16.5832 2.14981 16.4032 2.25081 25.3002 17.6518C25.663 18.2498 25.86 18.9335 25.871 19.6328C25.882 20.3321 25.7066 21.0217 25.3629 21.6308C25.0191 22.2399 24.5194 22.7465 23.9151 23.0985C23.3108 23.4505 22.6236 23.6353 21.9242 23.6338H21.9202Z" fill="#707070"/>
</svg>
