<svg width="28" height="25" viewBox="0 0 28 25" fill="none" xmlns="http://www.w3.org/2000/svg">
<path d="M25.757 0H1.981C1.45577 0.000529468 0.952201 0.209411 0.580806 0.580806C0.209411 0.952201 0.000529468 1.45577 0 1.981V18.821C0.00105851 19.3459 0.210174 19.8489 0.581511 20.2199C0.952849 20.5909 1.45611 20.7995 1.981 20.8H5.581C5.65167 20.8095 5.72357 20.8039 5.79187 20.7833C5.86016 20.7628 5.92327 20.7279 5.97697 20.681C6.03067 20.634 6.0737 20.5762 6.10319 20.5112C6.13268 20.4463 6.14793 20.3758 6.14793 20.3045C6.14793 20.2332 6.13268 20.1627 6.10319 20.0978C6.0737 20.0328 6.03067 19.975 5.97697 19.928C5.92327 19.8811 5.86016 19.8462 5.79187 19.8257C5.72357 19.8051 5.65167 19.7995 5.581 19.809H1.981C1.71825 19.8087 1.46634 19.7042 1.28055 19.5184C1.09476 19.3327 0.990264 19.0807 0.99 18.818V4.953H7.72C8.0072 4.95378 8.29171 4.89762 8.55707 4.78777C8.82243 4.67792 9.06339 4.51655 9.266 4.313C9.37677 4.20177 9.50847 4.11357 9.6535 4.0535C9.79853 3.99343 9.95402 3.96267 10.111 3.963H24.766C24.8859 3.9468 24.9959 3.88766 25.0755 3.79654C25.1552 3.70542 25.1991 3.58851 25.1991 3.4675C25.1991 3.34649 25.1552 3.22958 25.0755 3.13846C24.9959 3.04734 24.8859 2.9882 24.766 2.972H10.111C9.8238 2.97122 9.53929 3.02738 9.27393 3.13723C9.00857 3.24708 8.76761 3.40845 8.565 3.612C8.45423 3.72323 8.32253 3.81143 8.1775 3.8715C8.03247 3.93157 7.87698 3.96233 7.72 3.962H0.991V1.981C0.991265 1.71825 1.09576 1.46634 1.28155 1.28055C1.46734 1.09476 1.71925 0.990264 1.982 0.99H25.757C26.0197 0.990264 26.2717 1.09476 26.4575 1.28055C26.6432 1.46634 26.7477 1.71825 26.748 1.981V18.821C26.7477 19.0837 26.6432 19.3357 26.4575 19.5215C26.2717 19.7072 26.0197 19.8117 25.757 19.812H22.245C22.1743 19.8025 22.1024 19.8081 22.0341 19.8287C21.9658 19.8492 21.9027 19.8841 21.849 19.931C21.7953 19.978 21.7523 20.0358 21.7228 20.1008C21.6933 20.1657 21.6781 20.2362 21.6781 20.3075C21.6781 20.3788 21.6933 20.4493 21.7228 20.5142C21.7523 20.5792 21.7953 20.637 21.849 20.684C21.9027 20.7309 21.9658 20.7658 22.0341 20.7863C22.1024 20.8069 22.1743 20.8125 22.245 20.803H25.757C26.2822 20.8025 26.7858 20.5936 27.1572 20.2222C27.5286 19.8508 27.7375 19.3472 27.738 18.822V1.981C27.7375 1.45577 27.5286 0.952201 27.1572 0.580806C26.7858 0.209411 26.2822 0.000529468 25.757 0Z" fill="#707070"/>
<path d="M6.19092 2.47402C6.20712 2.59395 6.26626 2.70393 6.35738 2.78357C6.4485 2.8632 6.5654 2.90709 6.68642 2.90709C6.80743 2.90709 6.92434 2.8632 7.01546 2.78357C7.10657 2.70393 7.16572 2.59395 7.18192 2.47402C7.16572 2.3541 7.10657 2.24412 7.01546 2.16448C6.92434 2.08484 6.80743 2.04095 6.68642 2.04095C6.5654 2.04095 6.4485 2.08484 6.35738 2.16448C6.26626 2.24412 6.20712 2.3541 6.19092 2.47402Z" fill="#707070"/>
<path d="M4.20996 2.47402C4.22616 2.59395 4.2853 2.70393 4.37642 2.78357C4.46754 2.8632 4.58445 2.90709 4.70546 2.90709C4.82647 2.90709 4.94338 2.8632 5.0345 2.78357C5.12562 2.70393 5.18476 2.59395 5.20096 2.47402C5.18476 2.3541 5.12562 2.24412 5.0345 2.16448C4.94338 2.08484 4.82647 2.04095 4.70546 2.04095C4.58445 2.04095 4.46754 2.08484 4.37642 2.16448C4.2853 2.24412 4.22616 2.3541 4.20996 2.47402Z" fill="#707070"/>
<path d="M2.229 2.47402C2.2452 2.59395 2.30435 2.70393 2.39546 2.78357C2.48658 2.8632 2.60349 2.90709 2.7245 2.90709C2.84552 2.90709 2.96243 2.8632 3.05354 2.78357C3.14466 2.70393 3.2038 2.59395 3.22 2.47402C3.2038 2.3541 3.14466 2.24412 3.05354 2.16448C2.96243 2.08484 2.84552 2.04095 2.7245 2.04095C2.60349 2.04095 2.48658 2.08484 2.39546 2.16448C2.30435 2.24412 2.2452 2.3541 2.229 2.47402Z" fill="#707070"/>
<path d="M13.0826 9.95C13.6555 10.0219 14.2131 10.186 14.7336 10.436C14.8487 10.4728 14.9733 10.4667 15.0842 10.4187C15.1951 10.3708 15.2849 10.2843 15.337 10.1752C15.3891 10.0662 15.3999 9.94196 15.3675 9.82555C15.3351 9.70914 15.2616 9.60841 15.1606 9.542C14.5439 9.24613 13.8833 9.05196 13.2046 8.967C12.1832 8.83598 11.1453 8.95195 10.178 9.30517C9.21075 9.6584 8.34235 10.2386 7.64576 10.997C6.94916 11.7553 6.44471 12.6698 6.17478 13.6636C5.90484 14.6573 5.87729 15.7013 6.09444 16.7079C6.31159 17.7145 6.76711 18.6543 7.42274 19.4484C8.07837 20.2424 8.91496 20.8676 9.86226 21.2714C10.8096 21.6751 11.8399 21.8457 12.8668 21.7687C13.8937 21.6917 14.8871 21.3695 15.7636 20.829L19.2636 24.329C19.5467 24.5837 19.9167 24.72 20.2974 24.7099C20.678 24.6999 21.0403 24.5442 21.3095 24.2749C21.5788 24.0057 21.7345 23.6434 21.7446 23.2627C21.7546 22.8821 21.6183 22.5121 21.3636 22.229L17.8636 18.729C18.5355 17.6412 18.8676 16.3777 18.8176 15.1001C18.7675 13.8225 18.3375 12.5889 17.5826 11.557L19.5256 9.614V10.52C19.5418 10.6399 19.601 10.7499 19.6921 10.8295C19.7832 10.9092 19.9001 10.9531 20.0211 10.9531C20.1421 10.9531 20.259 10.9092 20.3501 10.8295C20.4413 10.7499 20.5004 10.6399 20.5166 10.52V8.42C20.5159 8.32225 20.4865 8.22687 20.4321 8.14565C20.3777 8.06442 20.3007 8.00092 20.2106 7.963C20.2756 7.863 17.9526 7.954 17.9196 7.925C17.7997 7.9412 17.6897 8.00034 17.6101 8.09146C17.5304 8.18258 17.4865 8.29948 17.4865 8.4205C17.4865 8.54151 17.5304 8.65842 17.6101 8.74954C17.6897 8.84066 17.7997 8.8998 17.9196 8.916H18.8256L12.7366 15.003L11.3366 13.603C11.2431 13.5114 11.1175 13.4601 10.9866 13.4601C10.8557 13.4601 10.7301 13.5114 10.6366 13.603L8.62561 15.614C8.55339 15.7103 8.51833 15.8294 8.52687 15.9494C8.5354 16.0695 8.58695 16.1824 8.67206 16.2676C8.75716 16.3527 8.87011 16.4042 8.99016 16.4127C9.11022 16.4213 9.22932 16.3862 9.32561 16.314L10.9866 14.653L12.3866 16.053C12.4816 16.1416 12.6067 16.1909 12.7366 16.1909C12.8665 16.1909 12.9916 16.1416 13.0866 16.053L15.9536 13.187C16.5146 12.677 16.8766 12.138 16.9136 12.341C17.5313 13.2618 17.8519 14.3497 17.8322 15.4583C17.8125 16.5668 17.4535 17.6427 16.8036 18.541C16.7481 18.6373 16.7251 18.749 16.7381 18.8594C16.7511 18.9698 16.7993 19.0731 16.8756 19.154C16.9666 19.245 20.6656 22.942 20.6756 22.954C20.7618 23.0529 20.8058 23.1816 20.7979 23.3126C20.79 23.4435 20.731 23.5662 20.6336 23.654C20.5372 23.7338 20.4149 23.7756 20.2897 23.7713C20.1646 23.7671 20.0454 23.7172 19.9546 23.631C19.8546 23.531 16.1706 19.841 16.1486 19.822C16.0532 19.7402 15.9311 19.6964 15.8054 19.699C15.6798 19.7016 15.5595 19.7503 15.4676 19.836C14.7401 20.3378 13.9013 20.6551 13.0238 20.7604C12.1463 20.8657 11.2563 20.7559 10.4307 20.4404C9.60507 20.125 8.86861 19.6134 8.28487 18.9497C7.70114 18.2861 7.28766 17.4904 7.08011 16.6313C6.87257 15.7722 6.8772 14.8755 7.0936 14.0185C7.31 13.1616 7.73168 12.3702 8.32223 11.7126C8.91279 11.0551 9.65449 10.5511 10.4833 10.2442C11.3121 9.93725 12.2032 9.83664 13.0796 9.951L13.0826 9.95Z" fill="#707070"/>
</svg>
