<svg width="27" height="27" viewBox="0 0 27 27" fill="none" xmlns="http://www.w3.org/2000/svg">
<path d="M14.3125 2.66667C14.3125 2.21794 13.9487 1.85417 13.5 1.85417C13.0513 1.85417 12.6875 2.21794 12.6875 2.66667V10.25C12.6875 10.6987 13.0513 11.0625 13.5 11.0625C13.9487 11.0625 14.3125 10.6987 14.3125 10.25V2.66667Z" fill="white"/>
<path d="M7.48796 5.48296C7.84674 5.21344 7.9191 4.70411 7.64959 4.34533C7.38007 3.98656 6.87074 3.91419 6.51196 4.1837C3.68546 6.30697 1.85413 9.68946 1.85413 13.5C1.85413 19.9319 7.06815 25.1458 13.5 25.1458C19.9318 25.1458 25.1458 19.9319 25.1458 13.5C25.1458 9.71779 23.2692 6.30992 20.4934 4.18785C20.1369 3.91532 19.627 3.98338 19.3545 4.33987C19.0819 4.69637 19.15 5.20629 19.5065 5.47881C21.9096 7.31591 23.5208 10.2599 23.5208 13.5C23.5208 19.0343 19.0343 23.5208 13.5 23.5208C7.96561 23.5208 3.47913 19.0343 3.47913 13.5C3.47913 10.2223 5.05229 7.31263 7.48796 5.48296Z" fill="white"/>
</svg>
