<svg width="31" height="21" viewBox="0 0 31 21" fill="none" xmlns="http://www.w3.org/2000/svg">
<path d="M22.168 0C19.635 0 17.655 1.908 15.868 4.331C13.405 1.195 11.345 0 8.88 0C3.85 0 0 6.54001 0 13.462C0 17.794 2.1 20.526 5.606 20.526C8.132 20.526 9.949 19.335 13.179 13.689C13.179 13.689 14.525 11.311 15.452 9.673C15.7767 10.197 16.1187 10.7617 16.478 11.367L17.992 13.919C20.943 18.856 22.587 20.53 25.565 20.53C28.985 20.53 30.888 17.761 30.888 13.339C30.888 6.091 26.951 0.00500488 22.168 0.00500488V0ZM10.716 12.16C8.097 16.265 7.191 17.185 5.733 17.185C4.233 17.185 3.341 15.868 3.341 13.519C3.341 8.49401 5.847 3.355 8.834 3.355C10.451 3.355 11.803 4.289 13.874 7.255C11.908 10.27 10.717 12.162 10.717 12.162L10.716 12.16ZM20.6 11.643L18.789 8.619C18.299 7.819 17.828 7.08567 17.376 6.41901C19.008 3.90001 20.355 2.645 21.956 2.645C25.283 2.645 27.944 7.54501 27.944 13.559C27.944 15.852 27.193 17.183 25.637 17.183C24.145 17.183 23.437 16.198 20.6 11.641V11.643Z" fill="#707070"/>
</svg>
