<svg width="17" height="17" viewBox="0 0 17 17" fill="none" xmlns="http://www.w3.org/2000/svg">
<path d="M15.664 15.4999L12.2 12.0359M14.12 7.39594C14.12 8.69338 13.7353 9.96169 13.0144 11.0405C12.2936 12.1193 11.2691 12.9601 10.0704 13.4566C8.87172 13.9531 7.55273 14.083 6.28021 13.8299C5.0077 13.5768 3.83882 12.952 2.92138 12.0346C2.00395 11.1171 1.37917 9.94825 1.12605 8.67573C0.872932 7.40321 1.00284 6.08422 1.49935 4.88553C1.99586 3.68685 2.83668 2.66232 3.91546 1.9415C4.99425 1.22067 6.26256 0.835938 7.56 0.835938C8.42147 0.835938 9.27451 1.00562 10.0704 1.33529C10.8663 1.66496 11.5895 2.14816 12.1986 2.75732C12.8078 3.36647 13.291 4.08964 13.6207 4.88553C13.9503 5.68143 14.12 6.53447 14.12 7.39594Z" stroke="#707070" stroke-width="1.5" stroke-linecap="round"/>
</svg>
