<svg width="45" height="40" viewBox="0 0 45 40" fill="none" xmlns="http://www.w3.org/2000/svg">
<g clip-path="url(#clip0_205_4230)">
<path fill-rule="evenodd" clip-rule="evenodd" d="M12.554 3.33536L15.8815 0.00242615V6.36529H12.554V3.33536ZM32.2167 3.33536L28.8892 0.00242615V6.36529H32.2167V3.33536Z" fill="#7B7B7B"/>
<path d="M15.8815 0.00242615H28.8892V3.18386H15.8815V0.00242615Z" fill="#5A5A5A"/>
<path fill-rule="evenodd" clip-rule="evenodd" d="M41.1406 39.9976H3.63005C2.6673 39.9976 1.74398 39.6145 1.06322 38.9326C0.382451 38.2508 0 37.326 0 36.3617L0 12.6127L6.23734 6.36529H38.5333L44.7706 12.6127V36.3617C44.7706 37.326 44.3882 38.2508 43.7074 38.9326C43.0267 39.6145 42.1033 39.9976 41.1406 39.9976Z" fill="#E6E7E8"/>
<path fill-rule="evenodd" clip-rule="evenodd" d="M0 19.2425V12.6127L6.23734 6.36529H38.5333L44.7706 12.6127V19.2425H0Z" fill="#D0D1D2"/>
<path fill-rule="evenodd" clip-rule="evenodd" d="M5.14258 39.9976V14.2431C5.14258 13.8413 5.30193 13.456 5.58559 13.1719C5.86924 12.8878 6.25395 12.7281 6.6551 12.7281H38.1156C38.5167 12.7281 38.9014 12.8878 39.1851 13.1719C39.4687 13.456 39.6281 13.8413 39.6281 14.2431V39.9976H5.14258Z" fill="#458CF5"/>
<path d="M5.14258 19.2425H39.6281V39.9976H5.14258V19.2425Z" fill="white"/>
<path fill-rule="evenodd" clip-rule="evenodd" d="M29.3429 39.9976V33.7862L26.3178 30.7563L24.3516 25.3024L25.7128 21.818L33.4267 29.5443L34.788 23.7874L39.628 28.6353V39.9976H29.3429Z" fill="#D2D3D4"/>
<path d="M7.41138 21.6665H18.9065V34.5437H7.41138V21.6665ZM7.41138 37.4221H22.2341V39.9976H7.41138V37.4221Z" fill="#D2D3D4"/>
<path fill-rule="evenodd" clip-rule="evenodd" d="M32.2167 35.1648V39.9976H25.8642V35.2335C24.569 34.6431 23.4687 33.6953 22.6919 32.5011C21.9152 31.307 21.4942 29.9158 21.4784 28.4907C21.4625 27.0655 21.8524 25.6654 22.6023 24.4541C23.3523 23.2429 24.4313 22.2708 25.7129 21.6516V28.7868L28.8892 30.7563L32.2167 28.7868V21.6513C33.4858 22.2645 34.5564 23.2238 35.3057 24.419C36.0549 25.6142 36.4523 26.9968 36.4523 28.4081C36.4523 29.8193 36.0549 31.202 35.3057 32.3972C34.5564 33.5924 33.4858 34.5517 32.2167 35.1648Z" fill="#505050"/>
<path fill-rule="evenodd" clip-rule="evenodd" d="M8.69702 14.3946C8.9513 14.3946 9.19986 14.4701 9.41129 14.6116C9.62271 14.7531 9.78749 14.9543 9.8848 15.1896C9.98211 15.4249 10.0076 15.6838 9.95796 15.9336C9.90835 16.1834 9.78591 16.4128 9.60611 16.5929C9.42631 16.773 9.19723 16.8956 8.94784 16.9453C8.69845 16.995 8.43995 16.9695 8.20503 16.872C7.97011 16.7746 7.76932 16.6095 7.62805 16.3978C7.48678 16.186 7.41138 15.937 7.41138 15.6823C7.41138 15.3408 7.54683 15.0133 7.78793 14.7718C8.02904 14.5303 8.35605 14.3946 8.69702 14.3946ZM12.4783 14.3946C12.7326 14.3946 12.9812 14.4701 13.1926 14.6116C13.404 14.7531 13.5688 14.9543 13.6661 15.1896C13.7634 15.4249 13.7889 15.6838 13.7393 15.9336C13.6897 16.1834 13.5672 16.4128 13.3874 16.5929C13.2076 16.773 12.9785 16.8956 12.7291 16.9453C12.4798 16.995 12.2213 16.9695 11.9863 16.872C11.7514 16.7746 11.5506 16.6095 11.4094 16.3978C11.2681 16.186 11.1927 15.937 11.1927 15.6823C11.1927 15.3408 11.3281 15.0133 11.5692 14.7718C11.8103 14.5303 12.1374 14.3946 12.4783 14.3946Z" fill="#E6E7E8"/>
</g>
<defs>
<clipPath id="clip0_205_4230">
<rect width="44.7706" height="40" fill="white"/>
</clipPath>
</defs>
</svg>
