<svg width="27" height="27" viewBox="0 0 27 27" fill="none" xmlns="http://www.w3.org/2000/svg">
<path d="M6.90407 21.419L3.18607 25.382C2.94592 25.6222 2.6202 25.7571 2.28057 25.7571C1.94094 25.7571 1.61522 25.6222 1.37507 25.382C1.13492 25.1419 1 24.8161 1 24.4765C1 24.1369 1.13492 23.8112 1.37507 23.571L5.35207 19.841" stroke="#707070" stroke-width="1.3" stroke-miterlimit="22.926" stroke-linecap="round" stroke-linejoin="round"/>
<path d="M14.1598 20.6056C16.371 18.3945 16.371 14.8095 14.1598 12.5984C11.9487 10.3872 8.36371 10.3872 6.15256 12.5984C3.94142 14.8095 3.94142 18.3945 6.15256 20.6056C8.36371 22.8168 11.9487 22.8168 14.1598 20.6056Z" stroke="#707070" stroke-width="1.3" stroke-miterlimit="22.926" stroke-linecap="round" stroke-linejoin="round"/>
<path d="M8.14014 11.057V1H21.2251L25.7551 5.529V24.654H8.14014V22.146" stroke="#707070" stroke-width="1.3" stroke-miterlimit="22.926" stroke-linecap="round" stroke-linejoin="round"/>
<path d="M25.5061 5.53001H21.2261V1.25201" stroke="#707070" stroke-width="1.3" stroke-miterlimit="22.926" stroke-linecap="round" stroke-linejoin="round"/>
<path d="M11.3379 3.01001H19.6119" stroke="#707070" stroke-width="1.3" stroke-miterlimit="22.926" stroke-linecap="round" stroke-linejoin="round"/>
<path d="M11.3379 5.078H14.4409" stroke="#707070" stroke-width="1.3" stroke-miterlimit="22.926" stroke-linecap="round" stroke-linejoin="round"/>
<path d="M15.7021 10.939H23.4931" stroke="#707070" stroke-width="1.3" stroke-miterlimit="22.926" stroke-linecap="round" stroke-linejoin="round"/>
<path d="M18.001 15.469H23.493" stroke="#707070" stroke-width="1.3" stroke-miterlimit="22.926" stroke-linecap="round" stroke-linejoin="round"/>
<path d="M18.001 17.733H20.747" stroke="#707070" stroke-width="1.3" stroke-miterlimit="22.926" stroke-linecap="round" stroke-linejoin="round"/>
<path d="M17.3188 19.998H23.4928" stroke="#707070" stroke-width="1.3" stroke-miterlimit="22.926" stroke-linecap="round" stroke-linejoin="round"/>
<path d="M15.7021 22.263H17.2011" stroke="#707070" stroke-width="1.3" stroke-miterlimit="22.926" stroke-linecap="round" stroke-linejoin="round"/>
<path d="M11.854 15.466L9.58904 17.731L8.45703 16.599" stroke="#707070" stroke-width="1.3" stroke-miterlimit="22.926" stroke-linecap="round" stroke-linejoin="round"/>
</svg>
